<?xml version="1.0" encoding="UTF-8" standalone="no"?>
<!DOCTYPE svg PUBLIC "-//W3C//DTD SVG 1.1//EN"
 "http://www.w3.org/Graphics/SVG/1.1/DTD/svg11.dtd">
<!-- Generated by graphviz version 13.0.1 (20250615.1724)
 -->
<!-- Title: G Pages: 1 -->
<svg width="927pt" height="627pt"
 viewBox="0.00 0.00 927.00 627.00" xmlns="http://www.w3.org/2000/svg" xmlns:xlink="http://www.w3.org/1999/xlink">
<g id="graph0" class="graph" transform="scale(1 1) rotate(0) translate(4 623.13)">
<title>G</title><style>.edge>path:hover{stroke-width:8}</style>
<polygon fill="white" stroke="none" points="-4,4 -4,-623.13 922.64,-623.13 922.64,4 -4,4"/>
<!-- app_py -->
<g id="node1" class="node">
<title>app_py</title><style>.edge>path:hover{stroke-width:8}</style>
<ellipse fill="#924e4e" stroke="black" cx="123" cy="-18" rx="27" ry="18"/>
<text xml:space="preserve" text-anchor="middle" x="123" y="-14.12" font-family="Helvetica,sans-Serif" font-size="10.00" fill="#ffffff">app.py</text>
</g>
<!-- flask -->
<g id="node2" class="node">
<title>flask</title><style>.edge>path:hover{stroke-width:8}</style>
<polygon fill="blue" stroke="black" points="614,-180 560,-180 560,-144 614,-144 614,-180"/>
<text xml:space="preserve" text-anchor="middle" x="587" y="-158.12" font-family="Helvetica,sans-Serif" font-size="10.00" fill="white">flask</text>
</g>
<!-- flask&#45;&gt;app_py -->
<g id="edge1" class="edge">
<title>flask&#45;&gt;app_py</title><style>.edge>path:hover{stroke-width:8}</style>
<path fill="none" stroke="black" d="M559.95,-160.87C499.77,-159.47 351.86,-149.81 247,-91"/>
</g>
<!-- flask_app -->
<g id="node3" class="node">
<title>flask_app</title><style>.edge>path:hover{stroke-width:8}</style>
<polygon fill="blue" stroke="black" points="598.88,-547.13 543.12,-547.13 543.12,-511.13 598.88,-511.13 598.88,-547.13"/>
<text xml:space="preserve" text-anchor="middle" x="571" y="-525.26" font-family="Helvetica,sans-Serif" font-size="10.00" fill="white">flask.app</text>
</g>
<!-- flask_app&#45;&gt;flask -->
<g id="edge2" class="edge">
<title>flask_app&#45;&gt;flask</title><style>.edge>path:hover{stroke-width:8}</style>
<path fill="none" stroke="black" d="M551.62,-510.81C516.8,-478.84 447.48,-410.91 450,-379"/>
</g>
<!-- flask_blueprints -->
<g id="node4" class="node">
<title>flask_blueprints</title><style>.edge>path:hover{stroke-width:8}</style>
<polygon fill="blue" stroke="black" points="467,-471.57 409,-471.57 409,-435.57 467,-435.57 467,-471.57"/>
<text xml:space="preserve" text-anchor="middle" x="438" y="-455.32" font-family="Helvetica,sans-Serif" font-size="10.00" fill="white">flask.</text>
<text xml:space="preserve" text-anchor="middle" x="438" y="-444.07" font-family="Helvetica,sans-Serif" font-size="10.00" fill="white">blueprints</text>
</g>
<!-- flask_app&#45;&gt;flask_blueprints -->
<g id="edge3" class="edge">
<title>flask_app&#45;&gt;flask_blueprints</title><style>.edge>path:hover{stroke-width:8}</style>
<path fill="none" stroke="black" d="M532.93,-507.08C515.43,-497.39 494.68,-485.92 477.05,-476.17"/>
<polygon fill="blue" stroke="black" points="531.03,-510.02 541.47,-511.8 534.41,-503.9 531.03,-510.02"/>
<polygon fill="blue" stroke="black" points="478.85,-473.16 468.41,-471.39 475.47,-479.29 478.85,-473.16"/>
</g>
<!-- flask_ctx -->
<g id="node6" class="node">
<title>flask_ctx</title><style>.edge>path:hover{stroke-width:8}</style>
<polygon fill="blue" stroke="black" points="781,-471.57 727,-471.57 727,-435.57 781,-435.57 781,-471.57"/>
<text xml:space="preserve" text-anchor="middle" x="754" y="-449.69" font-family="Helvetica,sans-Serif" font-size="10.00" fill="white">flask.ctx</text>
</g>
<!-- flask_app&#45;&gt;flask_ctx -->
<g id="edge4" class="edge">
<title>flask_app&#45;&gt;flask_ctx</title><style>.edge>path:hover{stroke-width:8}</style>
<path fill="none" stroke="black" d="M609.82,-514.43C638.12,-504.21 677.25,-489.56 711,-475.13 712.78,-474.37 714.59,-473.58 716.42,-472.77"/>
<polygon fill="blue" stroke="black" points="608.82,-511.07 600.59,-517.75 611.19,-517.66 608.82,-511.07"/>
<polygon fill="blue" stroke="black" points="717.86,-475.96 725.49,-468.6 714.94,-469.59 717.86,-475.96"/>
</g>
<!-- flask_globals -->
<g id="node7" class="node">
<title>flask_globals</title><style>.edge>path:hover{stroke-width:8}</style>
<polygon fill="blue" stroke="black" points="669.38,-396 598.62,-396 598.62,-360 669.38,-360 669.38,-396"/>
<text xml:space="preserve" text-anchor="middle" x="634" y="-374.12" font-family="Helvetica,sans-Serif" font-size="10.00" fill="white">flask.globals</text>
</g>
<!-- flask_app&#45;&gt;flask_globals -->
<g id="edge5" class="edge">
<title>flask_app&#45;&gt;flask_globals</title><style>.edge>path:hover{stroke-width:8}</style>
<path fill="none" stroke="black" d="M582.73,-500.36C594.01,-473.67 610.95,-433.55 622.24,-406.84"/>
<polygon fill="blue" stroke="black" points="579.61,-498.77 578.94,-509.34 586.05,-501.49 579.61,-498.77"/>
<polygon fill="blue" stroke="black" points="625.44,-408.26 626.11,-397.68 618.99,-405.53 625.44,-408.26"/>
</g>
<!-- flask_json -->
<g id="node9" class="node">
<title>flask_json</title><style>.edge>path:hover{stroke-width:8}</style>
<polygon fill="blue" stroke="black" points="536,-324 478,-324 478,-288 536,-288 536,-324"/>
<text xml:space="preserve" text-anchor="middle" x="507" y="-302.12" font-family="Helvetica,sans-Serif" font-size="10.00" fill="white">flask.json</text>
</g>
<!-- flask_app&#45;&gt;flask_json -->
<g id="edge6" class="edge">
<title>flask_app&#45;&gt;flask_json</title><style>.edge>path:hover{stroke-width:8}</style>
<path fill="none" stroke="black" d="M562.86,-500.01C550.58,-457.58 527.45,-377.66 515.16,-335.19"/>
<polygon fill="blue" stroke="black" points="559.42,-500.69 565.56,-509.33 566.14,-498.75 559.42,-500.69"/>
<polygon fill="blue" stroke="black" points="518.56,-334.36 512.42,-325.73 511.84,-336.3 518.56,-334.36"/>
</g>
<!-- flask_templating -->
<g id="node11" class="node">
<title>flask_templating</title><style>.edge>path:hover{stroke-width:8}</style>
<polygon fill="blue" stroke="black" points="670.5,-252 609.5,-252 609.5,-216 670.5,-216 670.5,-252"/>
<text xml:space="preserve" text-anchor="middle" x="640" y="-235.75" font-family="Helvetica,sans-Serif" font-size="10.00" fill="white">flask.</text>
<text xml:space="preserve" text-anchor="middle" x="640" y="-224.5" font-family="Helvetica,sans-Serif" font-size="10.00" fill="white">templating</text>
</g>
<!-- flask_app&#45;&gt;flask_templating -->
<g id="edge7" class="edge">
<title>flask_app&#45;&gt;flask_templating</title><style>.edge>path:hover{stroke-width:8}</style>
<path fill="none" stroke="black" d="M571.91,-499.35C573.52,-465.54 577.93,-407.95 590,-360 598.74,-325.25 614.95,-287.29 626.54,-262.43"/>
<polygon fill="blue" stroke="black" points="568.42,-499.03 571.5,-509.16 575.42,-499.32 568.42,-499.03"/>
<polygon fill="blue" stroke="black" points="629.57,-264.21 630.7,-253.67 623.25,-261.21 629.57,-264.21"/>
</g>
<!-- flask_blueprints&#45;&gt;flask -->
<g id="edge8" class="edge">
<title>flask_blueprints&#45;&gt;flask</title><style>.edge>path:hover{stroke-width:8}</style>
<path fill="none" stroke="black" d="M441.68,-435.13C444.62,-420.28 448.47,-398.35 450,-379"/>
</g>
<!-- flask_config -->
<g id="node5" class="node">
<title>flask_config</title><style>.edge>path:hover{stroke-width:8}</style>
<ellipse fill="#85c247" stroke="black" cx="499" cy="-601.13" rx="39.2" ry="18"/>
<text xml:space="preserve" text-anchor="middle" x="499" y="-597.26" font-family="Helvetica,sans-Serif" font-size="10.00" fill="#000000">flask.config</text>
</g>
<!-- flask_config&#45;&gt;flask -->
<g id="edge10" class="edge">
<title>flask_config&#45;&gt;flask</title><style>.edge>path:hover{stroke-width:8}</style>
<path fill="none" stroke="black" d="M535,-233C543.28,-217.54 554.72,-201.73 564.76,-189.06"/>
<polygon fill="#85c247" stroke="black" points="567.22,-191.58 570.81,-181.61 561.79,-187.17 567.22,-191.58"/>
<path fill="none" stroke="black" d="M481.14,-584.99C457.27,-563.45 416.11,-521.41 400,-475.13 393.7,-457.03 392.92,-449.82 400,-432 411.96,-401.9 447.48,-411.28 450,-379"/>
<path fill="none" stroke="black" d="M450,-377C451.71,-336.59 447.78,-322.43 469,-288 488.74,-255.97 517.23,-268.16 535,-235"/>
</g>
<!-- flask_config&#45;&gt;flask_app -->
<g id="edge11" class="edge">
<title>flask_config&#45;&gt;flask_app</title><style>.edge>path:hover{stroke-width:8}</style>
<path fill="none" stroke="black" d="M514.98,-584.6C523.78,-576.04 534.93,-565.2 544.96,-555.45"/>
<polygon fill="#85c247" stroke="black" points="547.22,-558.13 551.96,-548.65 542.35,-553.11 547.22,-558.13"/>
</g>
<!-- flask_ctx&#45;&gt;flask -->
<g id="edge12" class="edge">
<title>flask_ctx&#45;&gt;flask</title><style>.edge>path:hover{stroke-width:8}</style>
<path fill="none" stroke="black" d="M811,-305C815,-274.15 820.5,-264.62 811,-235"/>
<path fill="none" stroke="black" d="M762.04,-435.18C776.94,-402.52 807.63,-332.97 811,-307"/>
</g>
<!-- flask_ctx&#45;&gt;flask_globals -->
<g id="edge14" class="edge">
<title>flask_ctx&#45;&gt;flask_globals</title><style>.edge>path:hover{stroke-width:8}</style>
<path fill="none" stroke="black" d="M717.33,-430.09C702.98,-421.29 686.52,-411.2 672.03,-402.32"/>
<polygon fill="blue" stroke="black" points="715.13,-432.84 725.48,-435.08 718.78,-426.87 715.13,-432.84"/>
<polygon fill="blue" stroke="black" points="674.02,-399.43 663.66,-397.19 670.36,-405.4 674.02,-399.43"/>
</g>
<!-- flask_globals&#45;&gt;flask -->
<g id="edge15" class="edge">
<title>flask_globals&#45;&gt;flask</title><style>.edge>path:hover{stroke-width:8}</style>
<path fill="none" stroke="black" d="M615.95,-359.56C583.79,-327.55 521.21,-260.34 535,-235"/>
</g>
<!-- flask_helpers -->
<g id="node8" class="node">
<title>flask_helpers</title><style>.edge>path:hover{stroke-width:8}</style>
<polygon fill="blue" stroke="black" points="739.75,-324 668.25,-324 668.25,-288 739.75,-288 739.75,-324"/>
<text xml:space="preserve" text-anchor="middle" x="704" y="-302.12" font-family="Helvetica,sans-Serif" font-size="10.00" fill="white">flask.helpers</text>
</g>
<!-- flask_globals&#45;&gt;flask_helpers -->
<g id="edge18" class="edge">
<title>flask_globals&#45;&gt;flask_helpers</title><style>.edge>path:hover{stroke-width:8}</style>
<path fill="none" stroke="black" d="M651.3,-359.7C659.61,-351.39 669.72,-341.28 678.86,-332.14"/>
<polygon fill="blue" stroke="black" points="681.23,-334.72 685.83,-325.17 676.28,-329.77 681.23,-334.72"/>
</g>
<!-- flask_globals&#45;&gt;flask_json -->
<g id="edge19" class="edge">
<title>flask_globals&#45;&gt;flask_json</title><style>.edge>path:hover{stroke-width:8}</style>
<path fill="none" stroke="black" d="M602.28,-359.52C585.25,-350.13 564.11,-338.48 546.07,-328.54"/>
<polygon fill="blue" stroke="black" points="547.92,-325.56 537.47,-323.79 544.54,-331.69 547.92,-325.56"/>
</g>
<!-- flask_globals&#45;&gt;flask_templating -->
<g id="edge20" class="edge">
<title>flask_globals&#45;&gt;flask_templating</title><style>.edge>path:hover{stroke-width:8}</style>
<path fill="none" stroke="black" d="M634.74,-359.59C635.75,-335.61 637.59,-292.14 638.8,-263.42"/>
<polygon fill="blue" stroke="black" points="642.29,-263.76 639.21,-253.62 635.29,-263.47 642.29,-263.76"/>
</g>
<!-- flask_helpers&#45;&gt;flask -->
<g id="edge21" class="edge">
<title>flask_helpers&#45;&gt;flask</title><style>.edge>path:hover{stroke-width:8}</style>
<path fill="none" stroke="black" d="M811,-233C799.43,-196.92 686.41,-176.31 625.48,-167.74"/>
<polygon fill="blue" stroke="black" points="626.27,-164.32 615.89,-166.44 625.32,-171.26 626.27,-164.32"/>
<path fill="none" stroke="black" d="M740.16,-297.72C775.37,-288.53 822.09,-269.56 811,-235"/>
</g>
<!-- flask_helpers&#45;&gt;flask_app -->
<g id="edge22" class="edge">
<title>flask_helpers&#45;&gt;flask_app</title><style>.edge>path:hover{stroke-width:8}</style>
<path fill="none" stroke="black" d="M700.91,-324.44C697.18,-342.93 689.89,-372.61 678,-396 656.96,-437.37 621.41,-477.76 597.1,-502.78"/>
<polygon fill="blue" stroke="black" points="594.92,-500 590.39,-509.57 599.91,-504.92 594.92,-500"/>
</g>
<!-- flask_helpers&#45;&gt;flask_templating -->
<g id="edge23" class="edge">
<title>flask_helpers&#45;&gt;flask_templating</title><style>.edge>path:hover{stroke-width:8}</style>
<path fill="none" stroke="black" d="M688.18,-287.7C680.66,-279.47 671.53,-269.48 663.24,-260.42"/>
<polygon fill="blue" stroke="black" points="665.99,-258.24 656.66,-253.22 660.82,-262.96 665.99,-258.24"/>
</g>
<!-- flask_json&#45;&gt;flask -->
<g id="edge24" class="edge">
<title>flask_json&#45;&gt;flask</title><style>.edge>path:hover{stroke-width:8}</style>
<path fill="none" stroke="black" d="M512.7,-287.51C517.72,-273.03 525.68,-252.13 535,-235"/>
</g>
<!-- flask_signals -->
<g id="node10" class="node">
<title>flask_signals</title><style>.edge>path:hover{stroke-width:8}</style>
<ellipse fill="#85e722" stroke="black" cx="643" cy="-601.13" rx="41.86" ry="18"/>
<text xml:space="preserve" text-anchor="middle" x="643" y="-597.26" font-family="Helvetica,sans-Serif" font-size="10.00" fill="#000000">flask.signals</text>
</g>
<!-- flask_signals&#45;&gt;flask -->
<g id="edge26" class="edge">
<title>flask_signals&#45;&gt;flask</title><style>.edge>path:hover{stroke-width:8}</style>
<path fill="none" stroke="black" d="M811,-377C806.44,-346.22 808.46,-338.01 811,-307"/>
</g>
<!-- flask_signals&#45;&gt;flask_app -->
<g id="edge27" class="edge">
<title>flask_signals&#45;&gt;flask_app</title><style>.edge>path:hover{stroke-width:8}</style>
<path fill="none" stroke="black" d="M626.66,-584.25C617.85,-575.68 606.76,-564.9 596.81,-555.22"/>
<polygon fill="#85e722" stroke="black" points="599.48,-552.94 589.87,-548.48 594.6,-557.96 599.48,-552.94"/>
</g>
<!-- flask_signals&#45;&gt;flask_ctx -->
<g id="edge28" class="edge">
<title>flask_signals&#45;&gt;flask_ctx</title><style>.edge>path:hover{stroke-width:8}</style>
<path fill="none" stroke="black" d="M811,-528.13C818.85,-509.7 805.72,-491.86 790.09,-478.36"/>
<polygon fill="#85e722" stroke="black" points="792.45,-475.77 782.45,-472.28 788.09,-481.25 792.45,-475.77"/>
<path fill="none" stroke="black" d="M684.63,-597.98C727.46,-593.13 790.7,-577.81 811,-530.13"/>
</g>
<!-- flask_signals&#45;&gt;flask_helpers -->
<g id="edge29" class="edge">
<title>flask_signals&#45;&gt;flask_helpers</title><style>.edge>path:hover{stroke-width:8}</style>
<path fill="none" stroke="black" d="M811,-452.57C799.32,-403.34 759.87,-358.35 732.29,-331.81"/>
<polygon fill="#85e722" stroke="black" points="734.95,-329.5 725.26,-325.21 730.16,-334.61 734.95,-329.5"/>
<path fill="none" stroke="black" d="M811,-528.13C823.81,-498.05 815.09,-487.01 811,-454.57"/>
</g>
<!-- flask_signals&#45;&gt;flask_templating -->
<g id="edge30" class="edge">
<title>flask_signals&#45;&gt;flask_templating</title><style>.edge>path:hover{stroke-width:8}</style>
<path fill="none" stroke="black" d="M811,-377C802.51,-311.54 729.01,-270.16 681.18,-249.9"/>
<polygon fill="#85e722" stroke="black" points="682.79,-246.78 672.2,-246.24 680.14,-253.26 682.79,-246.78"/>
<path fill="none" stroke="black" d="M811,-452.57C806.91,-420.13 815.79,-411.34 811,-379"/>
</g>
<!-- flask_templating&#45;&gt;flask -->
<g id="edge31" class="edge">
<title>flask_templating&#45;&gt;flask</title><style>.edge>path:hover{stroke-width:8}</style>
<path fill="none" stroke="black" d="M626.9,-215.7C620.87,-207.73 613.58,-198.1 606.89,-189.26"/>
<polygon fill="blue" stroke="black" points="609.69,-187.17 600.86,-181.31 604.11,-191.4 609.69,-187.17"/>
</g>
<!-- markupsafe -->
<g id="node12" class="node">
<title>markupsafe</title><style>.edge>path:hover{stroke-width:8}</style>
<ellipse fill="#53b6b6" stroke="black" cx="879" cy="-234" rx="39.64" ry="18"/>
<text xml:space="preserve" text-anchor="middle" x="879" y="-230.12" font-family="Helvetica,sans-Serif" font-size="10.00" fill="#000000">markupsafe</text>
</g>
<!-- markupsafe&#45;&gt;flask -->
<g id="edge33" class="edge">
<title>markupsafe&#45;&gt;flask</title><style>.edge>path:hover{stroke-width:8}</style>
<path fill="none" stroke="black" d="M847.72,-222.65C840.31,-220.34 832.4,-217.99 825,-216 755.27,-197.3 672.82,-179.99 625.54,-170.52"/>
<polygon fill="#53b6b6" stroke="black" points="626.29,-167.1 615.8,-168.58 624.92,-173.97 626.29,-167.1"/>
</g>
<!-- psycopg2 -->
<g id="node13" class="node">
<title>psycopg2</title><style>.edge>path:hover{stroke-width:8}</style>
<polygon fill="blue" stroke="black" points="58,-252 0,-252 0,-216 58,-216 58,-252"/>
<text xml:space="preserve" text-anchor="middle" x="29" y="-230.12" font-family="Helvetica,sans-Serif" font-size="10.00" fill="white">psycopg2</text>
</g>
<!-- psycopg2&#45;&gt;app_py -->
<g id="edge34" class="edge">
<title>psycopg2&#45;&gt;app_py</title><style>.edge>path:hover{stroke-width:8}</style>
<path fill="none" stroke="black" d="M33.01,-215.85C40.48,-185.65 58.13,-121.47 84,-72 89.29,-61.89 96.38,-51.6 103.08,-42.81"/>
<polygon fill="blue" stroke="black" points="105.69,-45.15 109.13,-35.13 100.19,-40.82 105.69,-45.15"/>
</g>
<!-- psycopg2__ipaddress -->
<g id="node14" class="node">
<title>psycopg2__ipaddress</title><style>.edge>path:hover{stroke-width:8}</style>
<polygon fill="blue" stroke="black" points="307.62,-252 244.38,-252 244.38,-216 307.62,-216 307.62,-252"/>
<text xml:space="preserve" text-anchor="middle" x="276" y="-235.75" font-family="Helvetica,sans-Serif" font-size="10.00" fill="white">psycopg2.</text>
<text xml:space="preserve" text-anchor="middle" x="276" y="-224.5" font-family="Helvetica,sans-Serif" font-size="10.00" fill="white">_ipaddress</text>
</g>
<!-- psycopg2_extras -->
<g id="node19" class="node">
<title>psycopg2_extras</title><style>.edge>path:hover{stroke-width:8}</style>
<polygon fill="blue" stroke="black" points="336.5,-180 275.5,-180 275.5,-144 336.5,-144 336.5,-180"/>
<text xml:space="preserve" text-anchor="middle" x="306" y="-163.75" font-family="Helvetica,sans-Serif" font-size="10.00" fill="white">psycopg2.</text>
<text xml:space="preserve" text-anchor="middle" x="306" y="-152.5" font-family="Helvetica,sans-Serif" font-size="10.00" fill="white">extras</text>
</g>
<!-- psycopg2__ipaddress&#45;&gt;psycopg2_extras -->
<g id="edge35" class="edge">
<title>psycopg2__ipaddress&#45;&gt;psycopg2_extras</title><style>.edge>path:hover{stroke-width:8}</style>
<path fill="none" stroke="black" d="M283.42,-215.7C286.65,-208.15 290.52,-199.12 294.14,-190.68"/>
<polygon fill="blue" stroke="black" points="297.35,-192.07 298.07,-181.5 290.92,-189.31 297.35,-192.07"/>
</g>
<!-- psycopg2__json -->
<g id="node15" class="node">
<title>psycopg2__json</title><style>.edge>path:hover{stroke-width:8}</style>
<polygon fill="blue" stroke="black" points="272.12,-396 187.88,-396 187.88,-360 272.12,-360 272.12,-396"/>
<text xml:space="preserve" text-anchor="middle" x="230" y="-374.12" font-family="Helvetica,sans-Serif" font-size="10.00" fill="white">psycopg2._json</text>
</g>
<!-- psycopg2_extensions -->
<g id="node18" class="node">
<title>psycopg2_extensions</title><style>.edge>path:hover{stroke-width:8}</style>
<polygon fill="blue" stroke="black" points="198.62,-324 135.38,-324 135.38,-288 198.62,-288 198.62,-324"/>
<text xml:space="preserve" text-anchor="middle" x="167" y="-307.75" font-family="Helvetica,sans-Serif" font-size="10.00" fill="white">psycopg2.</text>
<text xml:space="preserve" text-anchor="middle" x="167" y="-296.5" font-family="Helvetica,sans-Serif" font-size="10.00" fill="white">extensions</text>
</g>
<!-- psycopg2__json&#45;&gt;psycopg2_extensions -->
<g id="edge36" class="edge">
<title>psycopg2__json&#45;&gt;psycopg2_extensions</title><style>.edge>path:hover{stroke-width:8}</style>
<path fill="none" stroke="black" d="M206.92,-351.36C201.43,-345.26 195.58,-338.75 190.09,-332.65"/>
<polygon fill="blue" stroke="black" points="204.12,-353.48 213.41,-358.57 209.33,-348.8 204.12,-353.48"/>
<polygon fill="blue" stroke="black" points="192.7,-330.32 183.41,-325.23 187.49,-335 192.7,-330.32"/>
</g>
<!-- psycopg2__json&#45;&gt;psycopg2_extras -->
<g id="edge37" class="edge">
<title>psycopg2__json&#45;&gt;psycopg2_extras</title><style>.edge>path:hover{stroke-width:8}</style>
<path fill="none" stroke="black" d="M260.12,-352.35C285.57,-329.42 320.16,-292.73 335,-252 342.53,-231.32 333.98,-207.62 324.25,-189.87"/>
<polygon fill="blue" stroke="black" points="257.9,-349.65 252.69,-358.87 262.52,-354.91 257.9,-349.65"/>
<polygon fill="blue" stroke="black" points="327.39,-188.3 319.28,-181.48 321.37,-191.87 327.39,-188.3"/>
</g>
<!-- psycopg2__psycopg -->
<g id="node16" class="node">
<title>psycopg2__psycopg</title><style>.edge>path:hover{stroke-width:8}</style>
<ellipse fill="#8522e7" stroke="black" cx="230" cy="-453.57" rx="43.13" ry="21.57"/>
<text xml:space="preserve" text-anchor="middle" x="230" y="-455.32" font-family="Helvetica,sans-Serif" font-size="10.00" fill="#ffffff">psycopg2.</text>
<text xml:space="preserve" text-anchor="middle" x="230" y="-444.07" font-family="Helvetica,sans-Serif" font-size="10.00" fill="#ffffff">_psycopg</text>
</g>
<!-- psycopg2__psycopg&#45;&gt;psycopg2 -->
<g id="edge38" class="edge">
<title>psycopg2__psycopg&#45;&gt;psycopg2</title><style>.edge>path:hover{stroke-width:8}</style>
<path fill="none" stroke="black" d="M86,-377C77.18,-347.17 91.83,-337.56 86,-307"/>
<path fill="none" stroke="black" d="M188.38,-447.18C150.48,-439.59 98.58,-421.53 86,-379"/>
<path fill="none" stroke="black" d="M86,-305C82.71,-287.74 71.37,-272.17 59.66,-260.12"/>
<polygon fill="#8522e7" stroke="black" points="62.31,-257.82 52.68,-253.41 57.46,-262.87 62.31,-257.82"/>
</g>
<!-- psycopg2__psycopg&#45;&gt;psycopg2__json -->
<g id="edge39" class="edge">
<title>psycopg2__psycopg&#45;&gt;psycopg2__json</title><style>.edge>path:hover{stroke-width:8}</style>
<path fill="none" stroke="black" d="M230,-431.68C230,-424.24 230,-415.71 230,-407.72"/>
<polygon fill="#8522e7" stroke="black" points="233.5,-407.73 230,-397.73 226.5,-407.73 233.5,-407.73"/>
</g>
<!-- psycopg2__range -->
<g id="node17" class="node">
<title>psycopg2__range</title><style>.edge>path:hover{stroke-width:8}</style>
<polygon fill="blue" stroke="black" points="154.5,-108 93.5,-108 93.5,-72 154.5,-72 154.5,-108"/>
<text xml:space="preserve" text-anchor="middle" x="124" y="-91.75" font-family="Helvetica,sans-Serif" font-size="10.00" fill="white">psycopg2.</text>
<text xml:space="preserve" text-anchor="middle" x="124" y="-80.5" font-family="Helvetica,sans-Serif" font-size="10.00" fill="white">_range</text>
</g>
<!-- psycopg2__psycopg&#45;&gt;psycopg2__range -->
<g id="edge40" class="edge">
<title>psycopg2__psycopg&#45;&gt;psycopg2__range</title><style>.edge>path:hover{stroke-width:8}</style>
<path fill="none" stroke="black" d="M86,-305C73.3,-238.4 97.15,-159.86 112.5,-118.96"/>
<polygon fill="#8522e7" stroke="black" points="115.76,-120.23 116.11,-109.64 109.23,-117.7 115.76,-120.23"/>
</g>
<!-- psycopg2__psycopg&#45;&gt;psycopg2_extensions -->
<g id="edge41" class="edge">
<title>psycopg2__psycopg&#45;&gt;psycopg2_extensions</title><style>.edge>path:hover{stroke-width:8}</style>
<path fill="none" stroke="black" d="M86,-377C78.91,-353.01 101.66,-334.9 124.83,-323.11"/>
<polygon fill="#8522e7" stroke="black" points="126.13,-326.37 133.69,-318.94 123.15,-320.04 126.13,-326.37"/>
</g>
<!-- psycopg2__psycopg&#45;&gt;psycopg2_extras -->
<g id="edge42" class="edge">
<title>psycopg2__psycopg&#45;&gt;psycopg2_extras</title><style>.edge>path:hover{stroke-width:8}</style>
<path fill="none" stroke="black" d="M249.08,-434.02C259.31,-423.46 271.69,-409.65 281,-396 320.99,-337.37 334.87,-321.34 350,-252 353.41,-236.37 355.43,-231.05 350,-216 346.4,-206.03 340.02,-196.61 333.21,-188.55"/>
<polygon fill="#8522e7" stroke="black" points="335.82,-186.22 326.49,-181.2 330.65,-190.94 335.82,-186.22"/>
</g>
<!-- psycopg2_extensions&#45;&gt;psycopg2 -->
<g id="edge45" class="edge">
<title>psycopg2_extensions&#45;&gt;psycopg2</title><style>.edge>path:hover{stroke-width:8}</style>
<path fill="none" stroke="black" d="M134.99,-288.76C115.24,-278.74 89.74,-265.81 68.71,-255.14"/>
<polygon fill="blue" stroke="black" points="70.33,-252.04 59.83,-250.64 67.16,-258.28 70.33,-252.04"/>
</g>
<!-- psycopg2_extensions&#45;&gt;psycopg2__ipaddress -->
<g id="edge46" class="edge">
<title>psycopg2_extensions&#45;&gt;psycopg2__ipaddress</title><style>.edge>path:hover{stroke-width:8}</style>
<path fill="none" stroke="black" d="M194.22,-287.52C207.98,-278.68 224.87,-267.84 239.71,-258.3"/>
<polygon fill="blue" stroke="black" points="241.33,-261.43 247.85,-253.08 237.54,-255.54 241.33,-261.43"/>
</g>
<!-- psycopg2_extensions&#45;&gt;psycopg2__range -->
<g id="edge48" class="edge">
<title>psycopg2_extensions&#45;&gt;psycopg2__range</title><style>.edge>path:hover{stroke-width:8}</style>
<path fill="none" stroke="black" d="M152.64,-277.55C148.96,-269.5 145.38,-260.56 143,-252 130.42,-206.8 126.17,-152.19 124.73,-119.6"/>
<polygon fill="blue" stroke="black" points="149.45,-278.99 156.94,-286.48 155.75,-275.95 149.45,-278.99"/>
<polygon fill="blue" stroke="black" points="128.24,-119.63 124.36,-109.77 121.24,-119.89 128.24,-119.63"/>
</g>
<!-- psycopg2_extensions&#45;&gt;psycopg2_extras -->
<g id="edge49" class="edge">
<title>psycopg2_extensions&#45;&gt;psycopg2_extras</title><style>.edge>path:hover{stroke-width:8}</style>
<path fill="none" stroke="black" d="M198.81,-303.92C234.31,-300.8 290.29,-289.77 317,-252 329.42,-234.44 325.23,-209.93 318.75,-191.07"/>
<polygon fill="blue" stroke="black" points="322.06,-189.93 315.2,-181.85 315.53,-192.44 322.06,-189.93"/>
</g>
<!-- psycopg2_sql -->
<g id="node20" class="node">
<title>psycopg2_sql</title><style>.edge>path:hover{stroke-width:8}</style>
<polygon fill="blue" stroke="black" points="225.88,-252 152.12,-252 152.12,-216 225.88,-216 225.88,-252"/>
<text xml:space="preserve" text-anchor="middle" x="189" y="-230.12" font-family="Helvetica,sans-Serif" font-size="10.00" fill="white">psycopg2.sql</text>
</g>
<!-- psycopg2_extensions&#45;&gt;psycopg2_sql -->
<g id="edge50" class="edge">
<title>psycopg2_extensions&#45;&gt;psycopg2_sql</title><style>.edge>path:hover{stroke-width:8}</style>
<path fill="none" stroke="black" d="M172.44,-287.7C174.78,-280.24 177.58,-271.32 180.21,-262.97"/>
<polygon fill="blue" stroke="black" points="183.51,-264.14 183.17,-253.55 176.83,-262.04 183.51,-264.14"/>
</g>
<!-- psycopg2_extras&#45;&gt;app_py -->
<g id="edge51" class="edge">
<title>psycopg2_extras&#45;&gt;app_py</title><style>.edge>path:hover{stroke-width:8}</style>
<path fill="none" stroke="black" d="M296.5,-143.79C286.46,-127.37 269.04,-103.36 247,-91"/>
</g>
<!-- psycopg2_extras&#45;&gt;psycopg2__range -->
<g id="edge53" class="edge">
<title>psycopg2_extras&#45;&gt;psycopg2__range</title><style>.edge>path:hover{stroke-width:8}</style>
<path fill="none" stroke="black" d="M264.76,-145.14C234.99,-133.69 194.95,-118.29 165.18,-106.84"/>
<polygon fill="blue" stroke="black" points="263.12,-148.26 273.71,-148.58 265.64,-141.73 263.12,-148.26"/>
<polygon fill="blue" stroke="black" points="166.72,-103.68 156.13,-103.36 164.21,-110.22 166.72,-103.68"/>
</g>
<!-- psycopg2_sql&#45;&gt;app_py -->
<g id="edge54" class="edge">
<title>psycopg2_sql&#45;&gt;app_py</title><style>.edge>path:hover{stroke-width:8}</style>
<path fill="none" stroke="black" d="M206.42,-215.5C236.67,-183.38 291.59,-116.01 247,-91"/>
<path fill="none" stroke="black" d="M247,-89C214.93,-71.01 178.26,-50.29 153.17,-36.09"/>
<polygon fill="blue" stroke="black" points="154.91,-33.06 144.49,-31.18 151.46,-39.15 154.91,-33.06"/>
</g>
<!-- psycopg2_sql&#45;&gt;psycopg2_extras -->
<g id="edge55" class="edge">
<title>psycopg2_sql&#45;&gt;psycopg2_extras</title><style>.edge>path:hover{stroke-width:8}</style>
<path fill="none" stroke="black" d="M218.22,-215.52C233.13,-206.6 251.46,-195.63 267.51,-186.03"/>
<polygon fill="blue" stroke="black" points="269.07,-189.18 275.85,-181.04 265.47,-183.17 269.07,-189.18"/>
</g>
</g>
</svg>
